# xmcd CD database file
# Copyright (C) 1993-1998 Ti Kan
#
# Track frame offsets:
# 150
# 18740
# 54900
# 82965
#
# Disc length: 1410 seconds
# Submitted via: CD-Runner 7.0
#
# Revision: 1
# Processed by: cddbd v1.4b41PL1 Copyright (c) Steve Scherf et al.
#
DISCID=25058004
DTITLE=Luther Vandross - Always and Forever
DYEAR=1900
DGENRE=
TTITLE0=Always and Forever (Radio Edit)
TTITLE1=Searching
TTITLE2=The Glow of Love
TTITLE3=Always and Forever (Live)
EXTD=Special Promotional Single
EXTD=\nEPIC
EXTT0=
EXTT1=
EXTT2=
EXTT3=
PLAYORDER=
